<?xml version="1.0" standalone="no"?>
<!DOCTYPE svg PUBLIC "-//W3C//DTD SVG 20010904//EN"
 "http://www.w3.org/TR/2001/REC-SVG-20010904/DTD/svg10.dtd">
<svg version="1.0" xmlns="http://www.w3.org/2000/svg"
 width="1280.000000pt" height="1280.000000pt" viewBox="0 0 1280.000000 1280.000000"
 preserveAspectRatio="xMidYMid meet">
<metadata>
Created by potrace 1.15, written by Peter Selinger 2001-2017
</metadata>
<g transform="translate(0.000000,1280.000000) scale(0.100000,-0.100000)"
fill="#000000" stroke="none">
<path d="M5933 11998 l-203 -203 -2 -309 -3 -309 -130 -24 c-584 -105 -1082
-311 -1490 -617 -132 -100 -593 -545 -744 -721 -307 -356 -488 -766 -558
-1266 -21 -155 -24 -566 -4 -709 37 -270 96 -472 200 -685 213 -435 550 -780
1041 -1067 137 -80 398 -210 520 -258 293 -116 726 -245 1093 -325 l77 -17 0
-1140 0 -1139 -22 7 c-13 3 -70 28 -127 55 -283 133 -491 336 -635 619 -100
198 -139 335 -194 685 l-17 110 -900 3 -900 2 -199 -199 -200 -200 17 -168
c75 -763 329 -1359 777 -1827 219 -229 472 -407 839 -591 374 -188 821 -313
1377 -385 85 -11 162 -20 170 -20 12 0 14 -65 14 -438 0 -464 0 -462 47 -462
13 0 32 -9 43 -20 19 -19 33 -20 401 -20 323 0 386 2 414 15 17 9 109 93 202
188 133 134 171 179 176 206 4 18 7 147 7 287 0 281 -1 278 68 289 456 74 773
172 1137 350 365 180 619 367 956 704 316 317 482 541 640 864 216 442 298
907 260 1462 -34 491 -140 846 -349 1165 -409 627 -1148 1019 -2462 1304 -91
20 -185 41 -210 47 l-45 10 5 1007 5 1007 27 3 c55 6 195 -86 304 -200 156
-165 264 -409 304 -688 14 -95 22 -110 58 -110 13 0 31 -8 38 -17 12 -17 66
-18 859 -21 750 -2 850 -1 879 13 47 23 372 354 378 385 13 74 -53 457 -117
680 -188 654 -592 1150 -1205 1483 -344 186 -838 332 -1325 391 -71 9 -148 18
-170 21 l-40 5 0 413 c0 398 -7 538 -28 565 -7 9 -106 12 -431 12 l-421 0
-202 -202z m-203 -3513 l0 -905 -27 11 c-68 26 -215 109 -283 160 -225 170
-358 393 -389 655 -12 98 1 319 25 438 35 172 99 305 175 362 76 57 217 115
384 159 50 13 96 24 103 24 9 1 12 -186 12 -904z m1469 -3375 c194 -77 356
-190 456 -320 147 -192 202 -404 192 -750 -7 -267 -46 -453 -134 -638 -40 -85
-63 -103 -206 -162 -135 -55 -390 -120 -471 -120 l-21 0 2 1007 c2 555 5 1014
8 1021 8 21 43 13 174 -38z"/>
</g>
</svg>
